<svg xmlns="http://www.w3.org/2000/svg" width="153.492" height="43.877" viewBox="0 0 153.492 43.877">
  <g id="グループ_108" data-name="グループ 108" transform="translate(-23.009 -2814.5)">
    <path id="パス_10" data-name="パス 10" d="M0,0H143.041V43.377H0Z" transform="translate(28.5 2814.5)" fill="#fff"/>
    <rect id="長方形_240" data-name="長方形 240" width="151" height="34.377" transform="translate(25.5 2819.5)" fill="#fff"/>
    <g id="グループ_68" data-name="グループ 68" transform="translate(23.5 2814.5)">
      <g id="グループ_67" data-name="グループ 67" transform="translate(0 0)">
        <line id="線_13" data-name="線 13" x2="144" transform="translate(5.001 1)" fill="none" stroke="#000" stroke-width="2"/>
        <line id="線_19" data-name="線 19" y2="34.877" transform="translate(0.509 5)" fill="none" stroke="#000" stroke-width="2"/>
        <line id="線_20" data-name="線 20" y2="6" transform="translate(5)" fill="none" stroke="#000" stroke-width="2"/>
        <line id="線_21" data-name="線 21" y1="5.5" transform="translate(6.001 6) rotate(90)" fill="none" stroke="#000" stroke-width="2"/>
        <path id="パス_2" data-name="パス 2" d="M0,0" transform="translate(0 38.905)" fill="none" stroke="#000" stroke-width="2"/>
        <line id="線_37" data-name="線 37" y1="5" transform="translate(4.501 37.877)" fill="none" stroke="#000" stroke-width="2"/>
        <line id="線_38" data-name="線 38" y2="5.5" transform="translate(0 38.877) rotate(-90)" fill="none" stroke="#000" stroke-width="2"/>
        <line id="線_39" data-name="線 39" x2="145.5" transform="translate(3.5 42.877)" fill="none" stroke="#000" stroke-width="2"/>
        <line id="線_40" data-name="線 40" y2="34.877" transform="translate(152.001 4)" fill="none" stroke="#000" stroke-width="2"/>
        <line id="線_41" data-name="線 41" y2="5.5" transform="translate(148.001 0.5)" fill="none" stroke="#000" stroke-width="2"/>
        <line id="線_42" data-name="線 42" y1="5.726" transform="translate(152.746 5.016) rotate(90)" fill="none" stroke="#000" stroke-width="2"/>
        <line id="線_43" data-name="線 43" y1="6" transform="translate(148 37.377)" fill="none" stroke="#000" stroke-width="2"/>
        <line id="線_44" data-name="線 44" y2="5.5" transform="translate(147.5 38.377) rotate(-90)" fill="none" stroke="#000" stroke-width="2"/>
      </g>
    </g>
  </g>
</svg>
