<svg xmlns="http://www.w3.org/2000/svg" width="351.523" height="1844.119" viewBox="0 0 351.523 1844.119">
  <g id="グループ_59" data-name="グループ 59" transform="translate(1142.524 -796.395)">
    <path id="パス_3" data-name="パス 3" d="M0,0H323.36" transform="translate(-1128.5 797.895)" fill="none" stroke="#000" stroke-width="3"/>
    <line id="線_14" data-name="線 14" y2="1824.114" transform="translate(-792.501 805.655)" fill="none" stroke="#000" stroke-width="3"/>
    <line id="線_19" data-name="線 19" y2="1823.635" transform="translate(-1141.001 805.655)" fill="none" stroke="#000" stroke-width="3"/>
    <line id="線_20" data-name="線 20" y2="5.969" transform="translate(-1127.001 797)" fill="none" stroke="#000" stroke-width="3"/>
    <line id="線_21" data-name="線 21" y1="10" transform="translate(-1125.501 802.073) rotate(90)" fill="none" stroke="#000" stroke-width="3"/>
    <line id="線_22" data-name="線 22" y2="5.969" transform="translate(-1134.001 801.178)" fill="none" stroke="#000" stroke-width="3"/>
    <line id="線_23" data-name="線 23" y1="10" transform="translate(-1132.524 806.55) rotate(90)" fill="none" stroke="#000" stroke-width="3"/>
    <line id="線_24" data-name="線 24" y1="6.5" transform="translate(-808.501 2634.014)" fill="none" stroke="#000" stroke-width="3"/>
    <line id="線_25" data-name="線 25" x1="11.5" transform="translate(-810.001 2633.907)" fill="none" stroke="#000" stroke-width="3"/>
    <line id="線_26" data-name="線 26" y1="5.969" transform="translate(-800.001 2628.8)" fill="none" stroke="#000" stroke-width="3"/>
    <line id="線_27" data-name="線 27" y1="10.5" transform="translate(-801.501 2628.502) rotate(-90)" fill="none" stroke="#000" stroke-width="3"/>
    <line id="線_28" data-name="線 28" x2="314.5" transform="translate(-1124.001 2638.98)" fill="none" stroke="#000" stroke-width="3"/>
    <line id="線_29" data-name="線 29" y1="5.969" transform="translate(-1122.5 2632.871)" fill="none" stroke="#000" stroke-width="3"/>
    <line id="線_30" data-name="線 30" y2="10.002" transform="translate(-1133.001 2633.766) rotate(-90)" fill="none" stroke="#000" stroke-width="3"/>
    <line id="線_31" data-name="線 31" y1="5.888" transform="translate(-1131.501 2628.597)" fill="none" stroke="#000" stroke-width="3"/>
    <line id="線_32" data-name="線 32" x2="12.503" transform="translate(-1142.504 2628.502)" fill="none" stroke="#000" stroke-width="3"/>
    <line id="線_33" data-name="線 33" x2="317" transform="translate(-1125.501 806.883)" fill="none" stroke="#000" stroke-width="2"/>
    <path id="パス_7" data-name="パス 7" d="M-2.319.033,314.937.6" transform="translate(-1123.516 2627.618)" fill="none" stroke="#000" stroke-width="2"/>
    <path id="パス_8" data-name="パス 8" d="M0,0V1819.773" transform="translate(-1126.501 807.445)" fill="none" stroke="#000" stroke-width="2"/>
    <line id="線_36" data-name="線 36" y2="1820.452" transform="translate(-807.501 807.304)" fill="none" stroke="#000" stroke-width="2"/>
    <line id="線_59" data-name="線 59" y2="5.969" transform="translate(-806.501 797)" fill="none" stroke="#000" stroke-width="3"/>
    <line id="線_60" data-name="線 60" y1="10" transform="translate(-791.001 806.55) rotate(90)" fill="none" stroke="#000" stroke-width="3"/>
    <line id="線_61" data-name="線 61" y2="5.888" transform="translate(-799.501 801.416)" fill="none" stroke="#000" stroke-width="3"/>
    <line id="線_62" data-name="線 62" y1="10" transform="translate(-798.001 802.372) rotate(90)" fill="none" stroke="#000" stroke-width="3"/>
  </g>
</svg>
