<svg xmlns="http://www.w3.org/2000/svg" width="300.5" height="2850" viewBox="0 0 300.5 2850">
  <g id="グループ_59" data-name="グループ 59" transform="translate(1142.524 -797)">
    <path id="パス_3" data-name="パス 3" d="M0,0H271.837" transform="translate(-1128.5 799.129)" fill="none" stroke="#000" stroke-width="3"/>
    <line id="線_14" data-name="線 14" y2="2804.25" transform="translate(-843.524 817.579)" fill="none" stroke="#000" stroke-width="3"/>
    <line id="線_19" data-name="線 19" y2="2804.25" transform="translate(-1141.001 817.579)" fill="none" stroke="#000" stroke-width="3"/>
    <line id="線_20" data-name="線 20" y2="14.192" transform="translate(-1127.001 797)" fill="none" stroke="#000" stroke-width="3"/>
    <line id="線_21" data-name="線 21" y1="10" transform="translate(-1125.501 809.063) rotate(90)" fill="none" stroke="#000" stroke-width="3"/>
    <line id="線_22" data-name="線 22" y2="14.192" transform="translate(-1134.001 806.935)" fill="none" stroke="#000" stroke-width="3"/>
    <line id="線_23" data-name="線 23" y1="10" transform="translate(-1132.524 819.708) rotate(90)" fill="none" stroke="#000" stroke-width="3"/>
    <line id="線_24" data-name="線 24" y1="14.192" transform="translate(-860.061 3632.808)" fill="none" stroke="#000" stroke-width="3"/>
    <line id="線_25" data-name="線 25" y1="10" transform="translate(-861.524 3632.808) rotate(-90)" fill="none" stroke="#000" stroke-width="3"/>
    <line id="線_26" data-name="線 26" y1="14.192" transform="translate(-851.524 3620.665)" fill="none" stroke="#000" stroke-width="3"/>
    <line id="線_27" data-name="線 27" y1="10" transform="translate(-853.024 3619.955) rotate(-90)" fill="none" stroke="#000" stroke-width="3"/>
    <line id="線_28" data-name="線 28" x2="262.977" transform="translate(-1124.001 3644.871)" fill="none" stroke="#000" stroke-width="3"/>
    <line id="線_29" data-name="線 29" y1="14.192" transform="translate(-1122.5 3630.344)" fill="none" stroke="#000" stroke-width="3"/>
    <line id="線_30" data-name="線 30" y2="10.002" transform="translate(-1133.001 3632.473) rotate(-90)" fill="none" stroke="#000" stroke-width="3"/>
    <line id="線_31" data-name="線 31" y1="14" transform="translate(-1131.501 3620.181)" fill="none" stroke="#000" stroke-width="3"/>
    <line id="線_32" data-name="線 32" x2="12.503" transform="translate(-1142.504 3619.955)" fill="none" stroke="#000" stroke-width="3"/>
    <line id="線_33" data-name="線 33" x2="265.477" transform="translate(-1125.501 820.5)" fill="none" stroke="#000" stroke-width="2"/>
    <path id="パス_7" data-name="パス 7" d="M-2.319.033,263.414,1.37" transform="translate(-1123.516 3617.898)" fill="none" stroke="#000" stroke-width="2"/>
    <path id="パス_8" data-name="パス 8" d="M0,0V2795.066" transform="translate(-1126.501 821.837)" fill="none" stroke="#000" stroke-width="2"/>
    <line id="線_36" data-name="線 36" y2="2796.681" transform="translate(-859.024 821.5)" fill="none" stroke="#000" stroke-width="2"/>
    <line id="線_59" data-name="線 59" y2="14.192" transform="translate(-858.024 797)" fill="none" stroke="#000" stroke-width="3"/>
    <line id="線_60" data-name="線 60" y1="10" transform="translate(-842.524 819.708) rotate(90)" fill="none" stroke="#000" stroke-width="3"/>
    <line id="線_61" data-name="線 61" y2="14" transform="translate(-851.024 807.5)" fill="none" stroke="#000" stroke-width="3"/>
    <line id="線_62" data-name="線 62" y1="10" transform="translate(-849.524 809.773) rotate(90)" fill="none" stroke="#000" stroke-width="3"/>
  </g>
</svg>
