<svg xmlns="http://www.w3.org/2000/svg" width="645" height="1632.68" viewBox="0 0 645 1632.68">
  <g id="グループ_275" data-name="グループ 275" transform="translate(1143.501 -794)">
    <line id="線_13" data-name="線 13" x2="598.999" transform="translate(-1118.5 796.5)" fill="none" stroke="#000" stroke-width="5"/>
    <line id="線_14" data-name="線 14" y2="1596.979" transform="translate(-501.001 811.5)" fill="none" stroke="#000" stroke-width="5"/>
    <line id="線_15" data-name="線 15" y2="10" transform="translate(-518.538 794)" fill="none" stroke="#000" stroke-width="5"/>
    <line id="線_16" data-name="線 16" y2="10" transform="translate(-511.501 805) rotate(90)" fill="none" stroke="#000" stroke-width="5"/>
    <line id="線_17" data-name="線 17" y2="10" transform="translate(-510.001 802.5)" fill="none" stroke="#000" stroke-width="5"/>
    <line id="線_18" data-name="線 18" y2="10" transform="translate(-502.501 814) rotate(90)" fill="none" stroke="#000" stroke-width="5"/>
    <line id="線_19" data-name="線 19" x2="0.501" y2="1596.979" transform="translate(-1141.001 811.5)" fill="none" stroke="#000" stroke-width="5"/>
    <line id="線_20" data-name="線 20" y2="10" transform="translate(-1121.001 794)" fill="none" stroke="#000" stroke-width="5"/>
    <line id="線_21" data-name="線 21" y1="10.976" transform="translate(-1118.5 805) rotate(90)" fill="none" stroke="#000" stroke-width="5"/>
    <line id="線_22" data-name="線 22" y2="10" transform="translate(-1131.123 802.5)" fill="none" stroke="#000" stroke-width="5"/>
    <line id="線_23" data-name="線 23" y1="10.976" transform="translate(-1128.524 814) rotate(90)" fill="none" stroke="#000" stroke-width="5"/>
    <line id="線_24" data-name="線 24" y1="10" transform="translate(-518.538 2416.68)" fill="none" stroke="#000" stroke-width="5"/>
    <line id="線_25" data-name="線 25" y1="10" transform="translate(-521.501 2415.035) rotate(-90)" fill="none" stroke="#000" stroke-width="5"/>
    <line id="線_26" data-name="線 26" y1="10" transform="translate(-510.001 2407.479)" fill="none" stroke="#000" stroke-width="5"/>
    <line id="線_27" data-name="線 27" y1="10" transform="translate(-512.501 2405.979) rotate(-90)" fill="none" stroke="#000" stroke-width="5"/>
    <line id="線_28" data-name="線 28" x2="602.999" transform="translate(-1122.5 2423.535)" fill="none" stroke="#000" stroke-width="5"/>
    <line id="線_29" data-name="線 29" y1="10" transform="translate(-1122.001 2416.68)" fill="none" stroke="#000" stroke-width="5"/>
    <line id="線_30" data-name="線 30" y2="10.002" transform="translate(-1129.502 2415.035) rotate(-90)" fill="none" stroke="#000" stroke-width="5"/>
    <line id="線_31" data-name="線 31" y1="10" transform="translate(-1131.001 2407.68)" fill="none" stroke="#000" stroke-width="5"/>
    <line id="線_32" data-name="線 32" y2="10.002" transform="translate(-1138.504 2405.979) rotate(-90)" fill="none" stroke="#000" stroke-width="5"/>
    <line id="線_33" data-name="線 33" x2="596.999" y2="1" transform="translate(-1118.5 815.5)" fill="none" stroke="#000" stroke-width="3"/>
    <line id="線_34" data-name="線 34" x2="596.999" y2="0.944" transform="translate(-1118.5 2404.535)" fill="none" stroke="#000" stroke-width="3"/>
    <line id="線_35" data-name="線 35" y2="1586.68" transform="translate(-1120.001 817)" fill="none" stroke="#000" stroke-width="3"/>
    <line id="線_36" data-name="線 36" y2="1586.68" transform="translate(-519.538 818)" fill="none" stroke="#000" stroke-width="3"/>
  </g>
</svg>
