<svg xmlns="http://www.w3.org/2000/svg" width="352.023" height="2968.32" viewBox="0 0 352.023 2968.32">
  <g id="グループ_59" data-name="グループ 59" transform="translate(1142.524 -797)">
    <path id="パス_3" data-name="パス 3" d="M0,0H323.36" transform="translate(-1128.5 799.129)" fill="none" stroke="#000" stroke-width="3"/>
    <line id="線_14" data-name="線 14" y2="2922.57" transform="translate(-792.001 817.579)" fill="none" stroke="#000" stroke-width="3"/>
    <line id="線_19" data-name="線 19" y2="2922.57" transform="translate(-1141.001 817.579)" fill="none" stroke="#000" stroke-width="3"/>
    <line id="線_20" data-name="線 20" y2="14.192" transform="translate(-1127.001 797)" fill="none" stroke="#000" stroke-width="3"/>
    <line id="線_21" data-name="線 21" y1="10" transform="translate(-1125.501 809.063) rotate(90)" fill="none" stroke="#000" stroke-width="3"/>
    <line id="線_22" data-name="線 22" y2="14.192" transform="translate(-1134.001 806.935)" fill="none" stroke="#000" stroke-width="3"/>
    <line id="線_23" data-name="線 23" y1="10" transform="translate(-1132.524 819.708) rotate(90)" fill="none" stroke="#000" stroke-width="3"/>
    <line id="線_24" data-name="線 24" y1="14.192" transform="translate(-808.538 3751.128)" fill="none" stroke="#000" stroke-width="3"/>
    <line id="線_25" data-name="線 25" y1="10" transform="translate(-810.001 3751.128) rotate(-90)" fill="none" stroke="#000" stroke-width="3"/>
    <line id="線_26" data-name="線 26" y1="14.192" transform="translate(-800.001 3738.985)" fill="none" stroke="#000" stroke-width="3"/>
    <line id="線_27" data-name="線 27" y1="10" transform="translate(-801.501 3738.275) rotate(-90)" fill="none" stroke="#000" stroke-width="3"/>
    <line id="線_28" data-name="線 28" x2="314.5" transform="translate(-1124.001 3763.191)" fill="none" stroke="#000" stroke-width="3"/>
    <line id="線_29" data-name="線 29" y1="14.192" transform="translate(-1122.5 3748.664)" fill="none" stroke="#000" stroke-width="3"/>
    <line id="線_30" data-name="線 30" y2="10.002" transform="translate(-1133.001 3750.793) rotate(-90)" fill="none" stroke="#000" stroke-width="3"/>
    <line id="線_31" data-name="線 31" y1="14" transform="translate(-1131.501 3738.501)" fill="none" stroke="#000" stroke-width="3"/>
    <line id="線_32" data-name="線 32" x2="12.503" transform="translate(-1142.504 3738.275)" fill="none" stroke="#000" stroke-width="3"/>
    <line id="線_33" data-name="線 33" x2="317" transform="translate(-1125.501 820.5)" fill="none" stroke="#000" stroke-width="2"/>
    <path id="パス_7" data-name="パス 7" d="M-2.319.033,314.937,1.37" transform="translate(-1123.516 3736.219)" fill="none" stroke="#000" stroke-width="2"/>
    <path id="パス_8" data-name="パス 8" d="M0,0V2913.386" transform="translate(-1126.501 821.837)" fill="none" stroke="#000" stroke-width="2"/>
    <line id="線_36" data-name="線 36" y2="2915.001" transform="translate(-807.501 821.5)" fill="none" stroke="#000" stroke-width="2"/>
    <line id="線_59" data-name="線 59" y2="14.192" transform="translate(-806.501 797)" fill="none" stroke="#000" stroke-width="3"/>
    <line id="線_60" data-name="線 60" y1="10" transform="translate(-791.001 819.708) rotate(90)" fill="none" stroke="#000" stroke-width="3"/>
    <line id="線_61" data-name="線 61" y2="14" transform="translate(-799.501 807.5)" fill="none" stroke="#000" stroke-width="3"/>
    <line id="線_62" data-name="線 62" y1="10" transform="translate(-798.001 809.773) rotate(90)" fill="none" stroke="#000" stroke-width="3"/>
  </g>
</svg>
