<svg xmlns="http://www.w3.org/2000/svg" width="82.455" height="27.955" viewBox="0 0 82.455 27.955">
  <g id="グループ_280" data-name="グループ 280" transform="translate(-22.882 -2814.252)">
    <path id="パス_10" data-name="パス 10" d="M0,0H74.1V27.083H0Z" transform="translate(27.261 2814.5)" fill="#fff"/>
    <rect id="長方形_240" data-name="長方形 240" width="80.086" height="20.313" transform="translate(25.004 2818.261)" fill="#fff"/>
    <g id="グループ_68" data-name="グループ 68" transform="translate(23.5 2814.5)">
      <g id="グループ_67" data-name="グループ 67" transform="translate(0 0)">
        <line id="線_13" data-name="線 13" x2="74.819" transform="translate(3.762 0.752)" fill="none" stroke="#000" stroke-width="2"/>
        <line id="線_19" data-name="線 19" y2="20.689" transform="translate(0.383 3.762)" fill="none" stroke="#000" stroke-width="2"/>
        <line id="線_20" data-name="線 20" y2="4.514" transform="translate(3.762)" fill="none" stroke="#000" stroke-width="2"/>
        <line id="線_21" data-name="線 21" y1="4.138" transform="translate(4.514 4.514) rotate(90)" fill="none" stroke="#000" stroke-width="2"/>
        <path id="パス_2" data-name="パス 2" d="M0,0" transform="translate(0 23.718)" fill="none" stroke="#000" stroke-width="2"/>
        <line id="線_37" data-name="線 37" y1="3.762" transform="translate(3.386 22.946)" fill="none" stroke="#000" stroke-width="2"/>
        <line id="線_38" data-name="線 38" y2="4.138" transform="translate(0 23.698) rotate(-90)" fill="none" stroke="#000" stroke-width="2"/>
        <line id="線_39" data-name="線 39" x2="75.948" transform="translate(2.633 26.707)" fill="none" stroke="#000" stroke-width="2"/>
        <line id="線_40" data-name="線 40" y2="20.689" transform="translate(80.838 3.009)" fill="none" stroke="#000" stroke-width="2"/>
        <line id="線_41" data-name="線 41" y2="4.138" transform="translate(77.829 0.376)" fill="none" stroke="#000" stroke-width="2"/>
        <line id="線_42" data-name="線 42" y1="4.307" transform="translate(81.399 3.774) rotate(90)" fill="none" stroke="#000" stroke-width="2"/>
        <line id="線_43" data-name="線 43" y1="4.514" transform="translate(77.829 22.569)" fill="none" stroke="#000" stroke-width="2"/>
        <line id="線_44" data-name="線 44" y2="4.138" transform="translate(77.453 23.322) rotate(-90)" fill="none" stroke="#000" stroke-width="2"/>
      </g>
    </g>
  </g>
</svg>
